<svg width="33" height="32" viewBox="0 0 33 32" fill="none" xmlns="http://www.w3.org/2000/svg">
<rect x="0.5" width="32" height="32" rx="8" fill="black"/>
<path d="M17.312 9.31238C17.312 8.58757 16.7495 8 16.0556 8C15.3617 8 14.7992 8.58757 14.7992 9.31238V13.6369H10.671C9.97707 13.6369 9.41456 14.2245 9.41456 14.9493C9.41456 15.6741 9.97707 16.2616 10.671 16.2616H14.7992V20.4864H7.97866C7.28477 20.4864 6.72225 21.0739 6.72225 21.7987C6.72225 22.5235 7.28477 23.1111 7.97866 23.1111H24.1325C24.8264 23.1111 25.3889 22.5235 25.3889 21.7987C25.3889 21.0739 24.8264 20.4864 24.1325 20.4864H17.312V16.2616H21.4402C22.1341 16.2616 22.6966 15.6741 22.6966 14.9493C22.6966 14.2245 22.1341 13.6369 21.4402 13.6369H17.312V9.31238Z" fill="white"/>
</svg>
